<svg width="250" height="253" viewBox="0 0 250 253" fill="none" xmlns="http://www.w3.org/2000/svg">
<path fill-rule="evenodd" clip-rule="evenodd" d="M125 252.03C121.685 252.03 118.505 250.702 116.161 248.339C113.817 245.976 112.5 242.771 112.5 239.428V226.046C103.454 224.905 94.6055 222.522 86.2 218.964L79.575 230.532C78.7602 231.977 77.67 233.245 76.3672 234.263C75.0643 235.281 73.5746 236.029 71.9836 236.465C70.3927 236.9 68.7321 237.014 67.0974 236.8C65.4626 236.586 63.886 236.048 62.4584 235.217C61.0308 234.386 59.7803 233.278 58.7789 231.958C57.7776 230.638 57.0451 229.131 56.6238 227.524C56.2024 225.918 56.1004 224.243 56.3238 222.596C56.5471 220.95 57.0913 219.364 57.925 217.93L64.5625 206.337C57.3125 200.792 50.8375 194.252 45.3125 186.931L33.8125 193.635C32.3904 194.475 30.8174 195.024 29.1841 195.249C27.5507 195.474 25.8894 195.371 24.2957 194.946C22.7019 194.522 21.2073 193.783 19.8978 192.774C18.5882 191.764 17.4897 190.504 16.6655 189.064C15.8412 187.625 15.3075 186.036 15.095 184.388C14.8825 182.74 14.9954 181.066 15.4274 179.462C15.8593 177.858 16.6016 176.356 17.6117 175.043C18.6217 173.729 19.8794 172.63 21.3125 171.809L32.8125 165.13C29.325 156.8 26.925 147.904 25.775 138.617H12.5C9.18479 138.617 6.00537 137.289 3.66116 134.926C1.31696 132.562 0 129.357 0 126.015C0 122.673 1.31696 119.468 3.66116 117.104C6.00537 114.741 9.18479 113.413 12.5 113.413H25.775C26.9069 104.294 29.2705 95.3737 32.8 86.8999L21.325 80.2212C19.8919 79.3998 18.6342 78.3007 17.6242 76.9873C16.6141 75.6739 15.8718 74.172 15.4399 72.5682C15.0079 70.9643 14.895 69.2902 15.1075 67.6422C15.32 65.9942 15.8537 64.4048 16.6779 62.9656C17.5022 61.5263 18.6007 60.2657 19.9103 59.2562C21.2198 58.2467 22.7144 57.5083 24.3082 57.0836C25.9019 56.6588 27.5633 56.556 29.1966 56.7811C30.8299 57.0063 32.4029 57.5549 33.825 58.3954L45.325 65.0868C50.8342 57.7636 57.3108 51.2343 64.575 45.6805L57.925 34.0871C57.0913 32.6534 56.5471 31.0676 56.3238 29.421C56.1004 27.7745 56.2024 26.0996 56.6238 24.493C57.0451 22.8863 57.7776 21.3795 58.7789 20.0593C59.7803 18.7392 61.0308 17.6318 62.4584 16.8008C63.886 15.9698 65.4626 15.4318 67.0974 15.2175C68.7321 15.0033 70.3927 15.1172 71.9836 15.5527C73.5746 15.9881 75.0643 16.7365 76.3672 17.7547C77.67 18.7729 78.7602 20.0409 79.575 21.4856L86.2 33.0789C94.6048 29.5164 103.454 27.1294 112.5 25.9843V12.6015C112.5 9.25938 113.817 6.05413 116.161 3.69089C118.505 1.32765 121.685 0 125 0C128.315 0 131.495 1.32765 133.839 3.69089C136.183 6.05413 137.5 9.25938 137.5 12.6015V25.9843C146.546 27.1254 155.395 29.5082 163.8 33.0663L170.425 21.4982C171.24 20.0534 172.33 18.7855 173.633 17.7673C174.936 16.7491 176.425 16.0007 178.016 15.5652C179.607 15.1298 181.268 15.0159 182.903 15.2301C184.537 15.4444 186.114 15.9824 187.542 16.8134C188.969 17.6443 190.22 18.7518 191.221 20.0719C192.222 21.3921 192.955 22.8989 193.376 24.5056C193.798 26.1123 193.9 27.7871 193.676 29.4337C193.453 31.0802 192.909 32.666 192.075 34.0997L185.438 45.693C192.702 51.2469 199.178 57.7762 204.688 65.0994L216.188 58.3954C217.61 57.5549 219.183 57.0063 220.816 56.7811C222.449 56.556 224.111 56.6588 225.704 57.0836C227.298 57.5083 228.793 58.2467 230.102 59.2562C231.412 60.2657 232.51 61.5263 233.335 62.9656C234.159 64.4048 234.693 65.9942 234.905 67.6422C235.118 69.2902 235.005 70.9643 234.573 72.5682C234.141 74.172 233.398 75.6739 232.388 76.9873C231.378 78.3007 230.121 79.3998 228.688 80.2212L217.188 86.8999C220.726 95.3724 223.098 104.293 224.238 113.413H237.5C240.815 113.413 243.995 114.741 246.339 117.104C248.683 119.468 250 122.673 250 126.015C250 129.357 248.683 132.562 246.339 134.926C243.995 137.289 240.815 138.617 237.5 138.617H224.225C223.093 147.736 220.73 156.656 217.2 165.13L228.675 171.809C231.523 173.492 233.594 176.242 234.438 179.459C235.282 182.676 234.829 186.099 233.178 188.981C231.528 191.863 228.814 193.969 225.628 194.841C222.443 195.713 219.044 195.279 216.175 193.635L204.675 186.943C199.175 194.252 192.688 200.78 185.425 206.35L192.075 217.943C193.706 220.836 194.137 224.262 193.272 227.473C192.407 230.684 190.317 233.421 187.459 235.084C184.6 236.748 181.205 237.205 178.014 236.354C174.822 235.504 172.094 233.415 170.425 230.544L163.8 218.951C155.396 222.518 146.547 224.909 137.5 226.058V239.428C137.5 242.771 136.183 245.976 133.839 248.339C131.495 250.702 128.315 252.03 125 252.03ZM189.7 86.8999L182.8 77.8143C177.22 71.0151 170.501 65.2532 162.95 60.7896L162.038 60.2478C150.745 53.7908 137.983 50.3996 125 50.406C112.875 50.406 101.425 53.3043 91.2875 58.4584L87.0375 60.7896C79.4895 65.2582 71.0756 73.4186 65.5 80.2212L59.775 89L125 50.406L189.7 86.8999ZM137.5 200.578C144.906 199.318 152.082 196.943 158.787 193.534L162.038 191.77L162.95 191.24C172.887 185.363 181.348 177.256 187.675 167.55L189.7 164.273L190.225 163.353C196.634 151.97 200.003 139.104 200 126.015C200 118.076 198.788 110.389 196.525 103.206L195.312 99.6401L217.2 179.462L137.5 200.578ZM112.5 200.578L125 201.624L137.5 200.578L217.2 179.462L195.312 99.6401L189.7 86.8999L125 50.406L59.775 89L54.6875 99.6401C51.5799 108.08 49.9924 117.012 50 126.015C50 138.238 52.875 149.781 57.9875 160.001L59.775 163.353L60.175 164.046L60.3 164.273C66.1302 174.291 74.1715 182.82 83.8 189.199L87.9625 191.782C94.4587 195.5 101.469 198.218 108.762 199.847L112.5 200.578Z" fill="#594747"/>
<path d="M98.89 75.65C99.75 75.65 100.39 75.84 100.81 76.22C101.23 76.6 101.44 77.1 101.44 77.72C101.44 78.32 101.19 78.84 100.69 79.28C100.19 79.72 99.79 79.94 99.49 79.94C99.19 79.94 99.03 79.8 99.01 79.52C98.97 79.04 98.65 78.59 98.05 78.17C97.47 77.75 96.87 77.54 96.25 77.54C94.67 77.54 93.06 78.29 91.42 79.79C89.78 81.29 88.47 83.01 87.49 84.95C86.51 86.89 86.02 88.53 86.02 89.87C86.02 91.21 86.3 92.31 86.86 93.17C87.44 94.01 88.28 94.43 89.38 94.43C91.14 94.43 93.05 92.88 95.11 89.78C96.07 88.36 97.04 86.28 98.02 83.54C98.38 82.56 98.57 82.06 98.59 82.04C98.75 81.62 99.01 81.41 99.37 81.41C99.55 81.41 99.69 81.47 99.79 81.59C99.91 81.69 99.97 81.82 99.97 81.98C99.97 82.12 99.94 82.28 99.88 82.46C99.3 84.58 99.01 86.61 99.01 88.55C99.01 90.47 99.34 92.07 100 93.35C100.66 94.63 101.54 95.27 102.64 95.27C103.2 95.27 103.7 95.09 104.14 94.73C104.28 94.61 104.42 94.55 104.56 94.55C104.8 94.55 104.92 94.66 104.92 94.88C104.92 95.98 104.27 97.01 102.97 97.97C101.67 98.91 100.38 99.38 99.1 99.38C97.04 99.38 96.01 97.96 96.01 95.12C96.01 93.98 96.15 92.7 96.43 91.28C96.73 89.86 96.88 89.13 96.88 89.09C96.88 89.03 96.84 89 96.76 89C96.68 89 96.59 89.09 96.49 89.27C95.35 92.11 93.79 94.5 91.81 96.44C89.83 98.36 88.01 99.32 86.35 99.32C84.69 99.32 83.5 98.68 82.78 97.4C82.28 96.54 82.03 95.48 82.03 94.22C82.03 91.74 82.87 89.05 84.55 86.15C86.25 83.23 88.43 80.75 91.09 78.71C93.77 76.67 96.37 75.65 98.89 75.65ZM112.662 94.01C113.802 94.15 115.362 94.79 117.342 95.93C119.322 97.07 120.652 97.64 121.332 97.64C122.032 97.64 122.582 97.53 122.982 97.31C123.382 97.07 123.672 96.84 123.852 96.62C124.052 96.38 124.182 96.26 124.242 96.26C124.402 96.26 124.542 96.39 124.662 96.65C124.782 96.91 124.842 97.09 124.842 97.19C124.842 98.03 124.102 98.84 122.622 99.62C121.162 100.42 120.002 100.82 119.142 100.82C118.282 100.82 117.312 100.61 116.232 100.19C115.172 99.77 114.232 99.32 113.412 98.84C111.192 97.5 109.822 96.83 109.302 96.83C108.802 96.83 108.202 97.14 107.502 97.76C106.802 98.38 106.132 99 105.492 99.62C104.872 100.24 104.432 100.55 104.172 100.55C103.932 100.55 103.722 100.45 103.542 100.25C103.362 100.05 103.272 99.86 103.272 99.68C103.272 99.5 103.522 99.13 104.022 98.57C104.542 98.03 105.282 97.4 106.242 96.68C107.202 95.94 108.162 95.35 109.122 94.91C109.542 94.03 110.362 92.25 111.582 89.57C112.822 86.87 113.452 85.51 113.472 85.49C113.492 85.45 113.692 85.02 114.072 84.2C114.472 83.36 114.742 82.8 114.882 82.52C115.022 82.24 115.282 81.72 115.662 80.96C116.062 80.2 116.382 79.62 116.622 79.22C117.422 78 118.032 77.18 118.452 76.76C118.452 76.7 118.422 76.67 118.362 76.67C118.302 76.67 118.222 76.7 118.122 76.76C118.022 76.8 117.462 77.04 116.442 77.48C115.422 77.92 114.552 78.29 113.832 78.59C113.132 78.89 112.202 79.28 111.042 79.76C109.902 80.22 108.922 80.59 108.102 80.87C105.962 81.59 104.472 81.95 103.632 81.95C102.492 81.95 101.922 81.53 101.922 80.69C101.922 80.37 102.072 80.06 102.372 79.76C102.672 79.46 102.932 79.22 103.152 79.04C103.372 78.84 103.592 78.66 103.812 78.5C104.592 77.88 105.052 77.57 105.192 77.57C105.352 77.57 105.492 77.62 105.612 77.72C105.732 77.82 105.792 77.94 105.792 78.08C105.792 78.2 105.642 78.38 105.342 78.62C105.042 78.86 104.892 79.02 104.892 79.1C104.892 79.16 104.972 79.19 105.132 79.19C105.592 79.19 107.892 78.55 112.032 77.27C117.292 75.65 120.182 74.66 120.702 74.3C121.022 74.08 121.262 73.97 121.422 73.97C121.582 73.97 121.712 74.08 121.812 74.3C121.912 74.5 121.962 74.73 121.962 74.99C121.962 75.25 121.852 75.42 121.632 75.5C120.272 76.06 118.642 78.12 116.742 81.68C115.782 83.48 113.852 87.67 110.952 94.25C111.552 94.09 112.122 94.01 112.662 94.01ZM141.751 75.65C142.611 75.65 143.251 75.84 143.671 76.22C144.091 76.6 144.301 77.1 144.301 77.72C144.301 78.32 144.051 78.84 143.551 79.28C143.051 79.72 142.651 79.94 142.351 79.94C142.051 79.94 141.891 79.8 141.871 79.52C141.831 79.04 141.511 78.59 140.911 78.17C140.331 77.75 139.731 77.54 139.111 77.54C137.531 77.54 135.921 78.29 134.281 79.79C132.641 81.29 131.331 83.01 130.351 84.95C129.371 86.89 128.881 88.53 128.881 89.87C128.881 91.21 129.161 92.31 129.721 93.17C130.301 94.01 131.141 94.43 132.241 94.43C134.001 94.43 135.911 92.88 137.971 89.78C138.931 88.36 139.901 86.28 140.881 83.54C141.241 82.56 141.431 82.06 141.451 82.04C141.611 81.62 141.871 81.41 142.231 81.41C142.411 81.41 142.551 81.47 142.651 81.59C142.771 81.69 142.831 81.82 142.831 81.98C142.831 82.12 142.801 82.28 142.741 82.46C142.161 84.58 141.871 86.61 141.871 88.55C141.871 90.47 142.201 92.07 142.861 93.35C143.521 94.63 144.401 95.27 145.501 95.27C146.061 95.27 146.561 95.09 147.001 94.73C147.141 94.61 147.281 94.55 147.421 94.55C147.661 94.55 147.781 94.66 147.781 94.88C147.781 95.98 147.131 97.01 145.831 97.97C144.531 98.91 143.241 99.38 141.961 99.38C139.901 99.38 138.871 97.96 138.871 95.12C138.871 93.98 139.011 92.7 139.291 91.28C139.591 89.86 139.741 89.13 139.741 89.09C139.741 89.03 139.701 89 139.621 89C139.541 89 139.451 89.09 139.351 89.27C138.211 92.11 136.651 94.5 134.671 96.44C132.691 98.36 130.871 99.32 129.211 99.32C127.551 99.32 126.361 98.68 125.641 97.4C125.141 96.54 124.891 95.48 124.891 94.22C124.891 91.74 125.731 89.05 127.411 86.15C129.111 83.23 131.291 80.75 133.951 78.71C136.631 76.67 139.231 75.65 141.751 75.65ZM164.781 87.5L164.871 80.87C164.851 80.73 164.771 80.66 164.631 80.66C164.511 80.66 164.401 80.73 164.301 80.87C163.321 83.31 162.081 86.68 160.581 90.98C159.101 95.26 158.321 97.51 158.241 97.73C158.181 97.95 157.991 98.21 157.671 98.51C157.351 98.83 157.071 98.99 156.831 98.99C156.591 98.99 156.471 98.8 156.471 98.42C156.451 98.28 156.421 97.62 156.381 96.44C156.341 95.24 156.281 94.02 156.201 92.78C156.121 91.54 156.011 90.26 155.871 88.94C155.751 87.6 155.571 86.51 155.331 85.67C155.091 84.81 154.821 84.38 154.521 84.38C154.001 84.38 152.531 88.48 150.111 96.68C149.791 97.8 149.621 98.38 149.601 98.42C149.521 98.68 149.331 98.9 149.031 99.08C148.751 99.28 148.481 99.38 148.221 99.38C148.001 99.38 147.891 99.22 147.891 98.9C148.031 94.78 148.101 91.37 148.101 88.67C148.101 83.57 148.021 80.14 147.861 78.38L147.771 77.39C147.771 77.25 147.911 77.05 148.191 76.79C148.471 76.51 148.731 76.37 148.971 76.37C149.211 76.37 149.331 76.59 149.331 77.03V77.24L149.391 79.76V80.99C149.391 88.61 149.341 93.22 149.241 94.82C149.241 95.18 149.271 95.36 149.331 95.36C149.391 95.36 150.221 92.92 151.821 88.04C153.441 83.14 154.341 80.39 154.521 79.79C154.701 79.19 154.931 78.74 155.211 78.44C155.491 78.12 155.791 77.96 156.111 77.96C156.571 77.96 156.951 79.27 157.251 81.89C157.551 84.51 157.781 87.13 157.941 89.75C158.121 92.37 158.251 93.68 158.331 93.68C158.431 93.68 158.701 93.11 159.141 91.97C159.581 90.83 160.081 89.45 160.641 87.83C161.221 86.21 161.791 84.59 162.351 82.97C163.731 79.09 164.491 77.19 164.631 77.27C164.591 77.25 164.651 77.17 164.811 77.03C165.291 76.63 165.681 76.41 165.981 76.37C166.421 76.43 166.641 76.7 166.641 77.18V77.96C166.641 79.46 166.671 80.66 166.731 81.56C167.331 91.54 169.561 96.53 173.421 96.53C173.741 96.53 174.031 96.44 174.291 96.26C174.551 96.08 174.721 95.99 174.801 95.99C174.901 95.99 175.011 96.05 175.131 96.17C175.251 96.29 175.311 96.42 175.311 96.56C175.311 97.08 174.761 97.69 173.661 98.39C172.581 99.11 171.521 99.47 170.481 99.47C166.681 99.47 164.781 95.48 164.781 87.5Z" fill="#594747"/>
<path d="M130.816 113L138 122.989L130.816 133L129 130.619L134.478 122.989L129 115.381L130.816 113Z" fill="#594747"/>
<path d="M121.684 113L114.5 122.989L121.684 133L123.5 130.619L118.022 122.989L123.5 115.381L121.684 113Z" fill="#594747"/>
<path d="M127.469 111.719C127.539 111.453 127.65 111.299 127.801 111.259C127.952 111.218 128.148 111.194 128.389 111.186C128.625 111.161 128.75 111.175 128.765 111.228C128.808 111.388 128.72 111.963 128.5 112.955C128.276 113.929 127.693 117.635 126.751 124.074C125.809 130.512 125.318 133.842 125.276 134.062C125.14 134.537 124.855 134.832 124.421 134.949C124.326 134.974 124.187 134.983 124.002 134.976C123.837 134.963 123.742 134.912 123.719 134.824C123.714 134.806 123.716 134.739 123.725 134.622C124.103 132.865 124.721 129.101 125.58 123.332C126.438 117.563 127.068 113.692 127.469 111.719Z" fill="#594747"/>
<path d="M74.1641 159.986C73.8933 160.449 73.5581 160.944 73.1583 161.47C72.765 161.996 72.3266 162.491 71.8431 162.955C71.366 163.406 70.8567 163.788 70.3151 164.101C69.7735 164.414 69.2223 164.584 68.6614 164.609C68.339 164.634 67.9973 164.577 67.6363 164.439C67.2817 164.314 66.9303 164.107 66.5821 163.819C66.2404 163.531 65.9116 163.168 65.5957 162.729C65.2862 162.278 65.0122 161.74 64.7737 161.113C64.5351 160.474 64.3449 159.748 64.2031 158.933C64.0677 158.119 64 157.21 64 156.208C64 154.968 64.1064 153.815 64.3191 152.75C64.5319 151.673 64.8188 150.696 65.1798 149.819C65.5409 148.929 65.9664 148.146 66.4564 147.469C66.9464 146.78 67.4686 146.204 68.0231 145.741C68.5775 145.277 69.1514 144.926 69.7445 144.688C70.3376 144.438 70.9179 144.312 71.4853 144.312C71.5562 144.312 71.6658 144.319 71.8141 144.331C71.9624 144.331 72.1268 144.344 72.3073 144.369C72.4878 144.394 72.6716 144.438 72.8585 144.5C73.0519 144.55 73.226 144.619 73.3808 144.707C73.5419 144.795 73.6709 144.907 73.7676 145.045C73.8707 145.17 73.9223 145.327 73.9223 145.515C73.9223 145.728 73.8675 145.935 73.7579 146.135C73.6483 146.336 73.5194 146.524 73.3711 146.699C73.255 146.849 73.1035 147.031 72.9165 147.244C72.7554 147.419 72.5491 147.645 72.2976 147.92C72.0526 148.196 71.7496 148.522 71.3886 148.898C71.5046 148.497 71.5239 148.159 71.4466 147.883C71.3692 147.607 71.2274 147.388 71.0211 147.225C70.8212 147.05 70.5762 146.924 70.2861 146.849C70.0024 146.774 69.709 146.737 69.406 146.737C69.2062 146.737 69.0095 146.755 68.8161 146.793C68.6291 146.818 68.4518 146.856 68.2842 146.906C68.123 146.943 67.978 146.993 67.849 147.056C67.7265 147.119 67.6266 147.181 67.5492 147.244C67.4267 147.344 67.301 147.601 67.172 148.014C67.0431 148.415 66.9238 148.91 66.8142 149.499C66.7111 150.088 66.624 150.746 66.5531 151.472C66.4886 152.199 66.4564 152.932 66.4564 153.671C66.4564 154.799 66.566 155.851 66.7852 156.828C67.0044 157.806 67.301 158.658 67.6749 159.384C68.0553 160.111 68.497 160.681 68.9998 161.094C69.5027 161.508 70.0346 161.714 70.5955 161.714C71.2016 161.714 71.8076 161.545 72.4137 161.207C73.0197 160.856 73.6032 160.449 74.1641 159.986Z" fill="#594747"/>
<path d="M85.8465 146.436C85.8465 146.987 85.8078 147.62 85.7305 148.334C85.6595 149.048 85.5242 149.837 85.3243 150.702C85.1309 151.566 84.8633 152.506 84.5216 153.521C84.1799 154.536 83.7383 155.613 83.1967 156.753C82.5068 158.219 81.7976 159.691 81.0691 161.169C80.3406 162.648 79.6443 164.07 78.9802 165.435C78.3161 166.801 77.7133 168.079 77.1717 169.269C76.6302 170.472 76.2014 171.531 75.8855 172.445C75.5696 173.36 75.3246 174.168 75.1505 174.87C74.9829 175.571 74.8636 176.179 74.7927 176.692C74.7218 177.206 74.6863 177.645 74.6863 178.008C74.6863 178.371 74.7024 178.672 74.7347 178.91C74.754 179.06 74.754 179.198 74.7347 179.323C74.7218 179.461 74.696 179.58 74.6573 179.681C74.6186 179.781 74.5703 179.856 74.5122 179.906C74.4542 179.969 74.3962 180 74.3382 180C74.2608 180 74.1834 179.925 74.1061 179.774C74.0287 179.637 73.9675 179.405 73.9223 179.079C73.8772 178.691 73.8998 178.165 73.99 177.501C74.0803 176.849 74.2221 176.135 74.4155 175.358C74.609 174.594 74.8443 173.798 75.1215 172.971C75.3987 172.157 75.7082 171.38 76.0499 170.641C76.469 169.739 76.9461 168.699 77.4812 167.522C78.0163 166.356 78.5676 165.129 79.1349 163.838C79.064 162.936 78.9641 161.902 78.8351 160.737C78.7126 159.56 78.5643 158.363 78.3903 157.148C78.2226 155.92 78.026 154.717 77.8003 153.54C77.5811 152.362 77.3361 151.316 77.0654 150.401C76.7946 149.474 76.5012 148.729 76.1853 148.165C75.8694 147.601 75.5309 147.319 75.1699 147.319C75.0216 147.319 74.8701 147.375 74.7153 147.488C74.5606 147.588 74.4026 147.726 74.2415 147.902C74.4284 147.551 74.6412 147.156 74.8797 146.718C75.1183 146.279 75.3697 145.872 75.6341 145.496C75.8984 145.12 76.1692 144.807 76.4464 144.557C76.7301 144.293 77.0073 144.162 77.2781 144.162C77.4651 144.162 77.6392 144.256 77.8003 144.444C77.968 144.632 78.1227 144.939 78.2645 145.365C78.3999 145.791 78.5869 146.417 78.8255 147.244C79.0705 148.058 79.3316 149.048 79.6088 150.213C79.8925 151.378 80.1697 152.706 80.4405 154.197C80.7177 155.676 80.9563 157.286 81.1561 159.027C81.5043 158.15 81.8267 157.292 82.1232 156.452C82.4198 155.601 82.6777 154.792 82.8969 154.028C83.1225 153.264 83.2966 152.556 83.4191 151.905C83.5481 151.241 83.6125 150.652 83.6125 150.138C83.6125 149.674 83.5868 149.261 83.5352 148.898C83.49 148.522 83.4223 148.215 83.3321 147.977C83.2418 147.726 83.1258 147.551 82.9839 147.451C82.8421 147.35 82.6809 147.332 82.5004 147.394C82.6487 147.043 82.8195 146.655 83.0129 146.229C83.2128 145.803 83.4223 145.409 83.6416 145.045C83.8672 144.669 84.0993 144.362 84.3379 144.124C84.5829 143.874 84.8278 143.748 85.0728 143.748C85.2469 143.748 85.3855 143.842 85.4887 144.03C85.5918 144.218 85.6692 144.45 85.7208 144.726C85.7724 145.001 85.8046 145.296 85.8175 145.609C85.8368 145.922 85.8465 146.198 85.8465 146.436Z" fill="#594747"/>
<path d="M99.3857 152.938C99.3857 154.041 99.2761 155.087 99.0569 156.077C98.8377 157.066 98.5444 157.987 98.1769 158.839C97.8094 159.691 97.3839 160.468 96.9003 161.169C96.4232 161.871 95.9203 162.479 95.3917 162.992C94.8694 163.506 94.3408 163.913 93.8056 164.214C93.2705 164.527 92.7676 164.721 92.297 164.797C92.0907 164.822 91.8457 164.815 91.562 164.778C91.2783 164.74 90.985 164.64 90.682 164.477C90.3854 164.327 90.0888 164.095 89.7922 163.782C89.5021 163.456 89.241 163.024 89.0089 162.485C88.7768 161.946 88.5898 161.282 88.448 160.493C88.3061 159.691 88.2352 158.739 88.2352 157.636C88.2352 156.81 88.2384 155.845 88.2449 154.742C88.2578 153.64 88.2707 152.462 88.2836 151.209C88.2965 149.944 88.3094 148.641 88.3223 147.3C88.3416 145.947 88.3609 144.613 88.3803 143.297C88.3996 141.982 88.4157 140.717 88.4286 139.501C88.448 138.273 88.4609 137.158 88.4673 136.156C88.4802 135.154 88.4899 134.289 88.4963 133.563C88.5028 132.836 88.5028 132.316 88.4963 132.003C88.477 131.552 88.4093 131.17 88.2932 130.857C88.1965 130.593 88.0482 130.387 87.8484 130.236C87.655 130.073 87.381 130.086 87.0264 130.274C87.2714 130.023 87.5196 129.767 87.771 129.503C88.0225 129.228 88.2771 128.983 88.535 128.771C88.7929 128.545 89.0508 128.363 89.3087 128.226C89.5666 128.075 89.8277 128 90.092 128C90.2274 128 90.3564 128.025 90.4789 128.075C90.6078 128.125 90.7174 128.219 90.8077 128.357C90.9044 128.482 90.9817 128.651 91.0398 128.864C91.0978 129.077 91.1268 129.341 91.1268 129.654C91.1268 129.879 91.1236 130.305 91.1171 130.932C91.1107 131.558 91.101 132.335 91.0881 133.262C91.0817 134.189 91.0688 135.229 91.0494 136.382C91.0366 137.534 91.0204 138.743 91.0011 140.009C90.9882 141.262 90.9721 142.546 90.9527 143.861C90.9398 145.164 90.9237 146.43 90.9044 147.657C91.2461 147.206 91.591 146.793 91.9392 146.417C92.2873 146.029 92.6419 145.703 93.003 145.44C93.3705 145.164 93.7412 144.951 94.1151 144.801C94.4955 144.638 94.8856 144.557 95.2853 144.557C95.93 144.557 96.507 144.788 97.0164 145.252C97.5257 145.715 97.9545 146.336 98.3026 147.112C98.6572 147.889 98.9248 148.785 99.1053 149.8C99.2923 150.802 99.3857 151.848 99.3857 152.938ZM90.827 156.565C90.827 157.192 90.9237 157.856 91.1171 158.557C91.317 159.246 91.5813 159.885 91.9102 160.474C92.239 161.063 92.6161 161.552 93.0416 161.94C93.4672 162.328 93.912 162.523 94.3762 162.523C94.8275 162.523 95.2079 162.31 95.5174 161.884C95.8333 161.458 96.088 160.919 96.2814 160.267C96.4748 159.603 96.6134 158.877 96.6972 158.087C96.7875 157.298 96.8326 156.546 96.8326 155.832C96.8326 154.68 96.7359 153.59 96.5425 152.562C96.3491 151.522 96.0751 150.614 95.7205 149.837C95.3723 149.048 94.9533 148.428 94.4633 147.977C93.9733 147.513 93.4349 147.282 92.8482 147.282C92.6097 147.282 92.3969 147.313 92.21 147.375C92.023 147.438 91.8779 147.52 91.7748 147.62C91.6781 147.72 91.5846 147.908 91.4943 148.184C91.4105 148.459 91.3299 148.791 91.2525 149.18C91.1752 149.568 91.1042 150 91.0398 150.476C90.9753 150.952 90.9173 151.441 90.8657 151.942C90.8528 153.045 90.8431 154.009 90.8367 154.836C90.8302 155.663 90.827 156.239 90.827 156.565Z" fill="#594747"/>
<path d="M113.834 146.21C113.093 146.912 112.403 147.538 111.764 148.09C111.133 148.628 110.575 149.086 110.091 149.462C109.53 149.9 109.015 150.288 108.544 150.627C108.254 150.865 107.932 151.109 107.577 151.36C107.229 151.598 106.865 151.836 106.484 152.074C106.104 152.299 105.714 152.531 105.314 152.769C104.921 152.995 104.531 153.22 104.144 153.446V153.821C104.144 155.112 104.247 156.271 104.453 157.298C104.666 158.326 104.959 159.203 105.333 159.929C105.707 160.643 106.155 161.195 106.678 161.583C107.2 161.959 107.777 162.147 108.409 162.147C108.737 162.147 109.063 162.097 109.385 161.996C109.714 161.896 110.024 161.765 110.314 161.602C110.61 161.426 110.888 161.22 111.146 160.982C111.403 160.744 111.632 160.487 111.832 160.211C111.342 161.063 110.836 161.777 110.314 162.353C109.798 162.93 109.279 163.4 108.757 163.763C108.241 164.114 107.728 164.371 107.219 164.533C106.716 164.696 106.233 164.784 105.769 164.797C105.298 164.822 104.834 164.678 104.376 164.364C103.925 164.064 103.512 163.6 103.138 162.974C102.764 162.347 102.448 161.57 102.19 160.643C101.932 159.704 101.765 158.614 101.687 157.373C101.655 156.935 101.639 156.515 101.639 156.114C101.646 155.701 101.668 155.294 101.707 154.893C101.481 155.056 101.275 155.206 101.088 155.344C100.907 155.482 100.759 155.619 100.643 155.757C100.83 155.507 101.017 155.275 101.204 155.062C101.391 154.836 101.575 154.63 101.755 154.442C101.865 153.464 102.052 152.531 102.316 151.641C102.587 150.752 102.909 149.925 103.283 149.161C103.663 148.397 104.086 147.708 104.55 147.094C105.014 146.467 105.495 145.935 105.991 145.496C106.494 145.058 107.003 144.719 107.519 144.481C108.035 144.243 108.534 144.124 109.018 144.124C109.34 144.124 109.611 144.218 109.83 144.406C110.056 144.594 110.207 144.926 110.285 145.402C110.324 145.903 110.23 146.442 110.004 147.018C109.908 147.269 109.775 147.538 109.608 147.827C109.447 148.102 109.234 148.397 108.97 148.71C108.712 149.023 108.399 149.349 108.032 149.687C107.67 150.025 107.242 150.364 106.745 150.702L113.834 146.21ZM106.165 150.777C106.442 150.539 106.69 150.282 106.91 150.007C107.135 149.731 107.309 149.443 107.432 149.142C107.561 148.841 107.629 148.528 107.635 148.202C107.641 147.877 107.574 147.532 107.432 147.169C107.335 146.893 107.2 146.705 107.026 146.605C106.858 146.492 106.684 146.436 106.504 146.436C106.336 146.436 106.175 146.473 106.02 146.549C105.865 146.611 105.73 146.699 105.614 146.812C105.536 146.899 105.43 147.094 105.295 147.394C105.159 147.682 105.021 148.065 104.879 148.541C104.737 149.004 104.602 149.549 104.473 150.176C104.35 150.79 104.26 151.466 104.202 152.205C104.608 151.917 104.976 151.66 105.304 151.435C105.633 151.209 105.92 150.99 106.165 150.777Z" fill="#594747"/>
<path d="M116.822 148.935C117.125 148.372 117.454 147.808 117.809 147.244C118.17 146.68 118.534 146.173 118.902 145.722C119.276 145.258 119.649 144.882 120.023 144.594C120.397 144.306 120.749 144.162 121.078 144.162C121.303 144.162 121.522 144.212 121.735 144.312C121.954 144.4 122.167 144.506 122.373 144.632C122.586 144.744 122.796 144.851 123.002 144.951C123.208 145.039 123.418 145.083 123.631 145.083C123.76 145.083 123.895 145.064 124.037 145.026C124.179 144.989 124.34 144.92 124.52 144.82C124.114 145.421 123.76 145.941 123.457 146.379C123.154 146.818 122.87 147.181 122.606 147.469C122.341 147.745 122.077 147.952 121.813 148.09C121.555 148.215 121.264 148.265 120.942 148.24C120.626 148.227 120.326 148.165 120.043 148.052C119.766 147.939 119.511 147.827 119.279 147.714C119.053 147.588 118.853 147.501 118.679 147.451C118.512 147.388 118.379 147.407 118.283 147.507C118.051 147.733 117.847 148.146 117.673 148.747C117.499 149.349 117.351 150.063 117.229 150.89C117.112 151.717 117.016 152.612 116.938 153.577C116.867 154.542 116.813 155.507 116.774 156.471C116.742 157.436 116.726 158.357 116.726 159.234C116.726 160.098 116.739 160.85 116.764 161.489C116.281 162.09 115.881 162.61 115.565 163.049C115.249 163.487 114.998 163.851 114.811 164.139C114.592 164.477 114.424 164.771 114.308 165.022C114.314 164.27 114.324 163.362 114.337 162.297C114.35 161.22 114.359 160.092 114.366 158.914C114.379 157.737 114.388 156.571 114.395 155.419C114.401 154.254 114.405 153.208 114.405 152.28C114.405 151.692 114.395 151.096 114.376 150.495C114.363 149.881 114.311 149.324 114.221 148.823C114.131 148.321 113.989 147.914 113.795 147.601C113.608 147.288 113.341 147.131 112.993 147.131C112.857 147.131 112.715 147.163 112.567 147.225C112.425 147.275 112.283 147.369 112.142 147.507C112.412 147.156 112.683 146.799 112.954 146.436C113.225 146.073 113.496 145.747 113.766 145.459C114.044 145.158 114.318 144.92 114.588 144.744C114.866 144.557 115.146 144.463 115.43 144.463C115.771 144.463 116.036 144.607 116.223 144.895C116.416 145.183 116.555 145.546 116.639 145.985C116.729 146.423 116.78 146.906 116.793 147.432C116.813 147.958 116.822 148.459 116.822 148.935Z" fill="#594747"/>
<path d="M140.864 143.579C140.954 144.106 141.029 144.6 141.087 145.064C141.151 145.528 141.183 146.01 141.183 146.511C141.183 146.874 141.161 147.263 141.116 147.676C141.07 148.077 140.996 148.522 140.893 149.01C140.79 149.487 140.651 150.013 140.477 150.589C140.31 151.165 140.097 151.811 139.839 152.525C139.407 153.715 139.02 154.786 138.679 155.738C138.337 156.678 138.04 157.524 137.789 158.275C137.537 159.027 137.331 159.697 137.17 160.286C137.015 160.863 136.909 161.376 136.851 161.827C136.632 162.065 136.406 162.347 136.174 162.673C135.974 162.961 135.751 163.318 135.506 163.744C135.268 164.17 135.029 164.671 134.791 165.248C134.855 164.671 134.855 164.039 134.791 163.349C134.726 162.648 134.62 161.921 134.472 161.169C134.33 160.418 134.159 159.647 133.959 158.858C133.759 158.056 133.553 157.267 133.34 156.49C133.134 155.713 132.934 154.955 132.741 154.216C132.554 153.464 132.399 152.757 132.276 152.093C132.019 152.844 131.741 153.634 131.445 154.46C131.148 155.275 130.871 156.095 130.613 156.922C130.362 157.749 130.149 158.557 129.975 159.347C129.801 160.123 129.707 160.85 129.694 161.527C129.514 161.714 129.317 161.971 129.104 162.297C128.917 162.573 128.701 162.936 128.456 163.387C128.211 163.826 127.95 164.371 127.673 165.022C127.621 163.807 127.534 162.604 127.412 161.414C127.296 160.211 127.177 159.121 127.054 158.144C126.906 157.016 126.751 155.933 126.59 154.893C126.416 153.84 126.229 152.869 126.029 151.98C125.836 151.078 125.626 150.295 125.4 149.631C125.181 148.967 124.943 148.447 124.685 148.071C124.433 147.695 124.163 147.507 123.872 147.507C123.711 147.507 123.55 147.57 123.389 147.695C123.234 147.808 123.066 147.977 122.886 148.202C123.105 147.789 123.347 147.35 123.611 146.887C123.882 146.411 124.166 145.972 124.462 145.571C124.759 145.158 125.062 144.82 125.371 144.557C125.687 144.293 126 144.162 126.309 144.162C126.516 144.162 126.706 144.256 126.88 144.444C127.054 144.632 127.202 144.926 127.325 145.327C127.447 145.741 127.612 146.367 127.818 147.206C128.024 148.033 128.237 149.004 128.456 150.119C128.676 151.222 128.879 152.437 129.066 153.765C129.259 155.093 129.404 156.459 129.501 157.862C129.81 157.073 130.1 156.246 130.371 155.381C130.648 154.517 130.887 153.634 131.087 152.731C131.293 151.817 131.454 150.896 131.57 149.969C131.693 149.029 131.754 148.096 131.754 147.169L133.959 143.748C133.927 144.087 133.92 144.45 133.94 144.838C133.966 145.214 133.998 145.565 134.036 145.891C134.082 146.279 134.14 146.655 134.211 147.018C134.262 147.307 134.349 147.708 134.472 148.221C134.594 148.735 134.736 149.324 134.897 149.988C135.058 150.639 135.232 151.341 135.419 152.093C135.606 152.844 135.79 153.596 135.971 154.348C136.151 155.099 136.319 155.826 136.474 156.528C136.628 157.229 136.76 157.856 136.87 158.407C137.115 157.693 137.36 156.96 137.605 156.208C137.856 155.444 138.079 154.68 138.272 153.915C138.472 153.139 138.633 152.362 138.756 151.585C138.885 150.808 138.949 150.038 138.949 149.274C138.949 148.91 138.933 148.541 138.901 148.165C138.869 147.789 138.811 147.407 138.727 147.018C139.088 146.555 139.401 146.116 139.665 145.703C139.929 145.277 140.152 144.907 140.332 144.594C140.545 144.231 140.722 143.893 140.864 143.579Z" fill="#594747"/>
<path d="M154.49 153.201C154.49 154.241 154.416 155.187 154.268 156.039C154.12 156.891 153.942 157.636 153.736 158.275C153.53 158.914 153.32 159.447 153.107 159.873C152.895 160.299 152.724 160.606 152.595 160.794C152.221 161.32 151.837 161.834 151.444 162.335C151.051 162.836 150.645 163.287 150.226 163.688C149.813 164.076 149.387 164.389 148.949 164.627C148.511 164.865 148.059 164.984 147.595 164.984C146.905 164.984 146.251 164.815 145.632 164.477C145.019 164.139 144.481 163.631 144.017 162.955C143.559 162.278 143.195 161.426 142.924 160.399C142.66 159.372 142.528 158.169 142.528 156.791C142.528 155.575 142.634 154.435 142.847 153.37C143.066 152.293 143.356 151.303 143.717 150.401C144.085 149.499 144.513 148.691 145.003 147.977C145.493 147.25 146.012 146.636 146.56 146.135C147.108 145.634 147.672 145.252 148.253 144.989C148.833 144.726 149.394 144.594 149.935 144.594C150.606 144.594 151.218 144.813 151.773 145.252C152.334 145.678 152.814 146.279 153.214 147.056C153.62 147.82 153.933 148.729 154.152 149.781C154.378 150.833 154.49 151.973 154.49 153.201ZM147.817 146.774C147.489 146.774 147.189 146.893 146.918 147.131C146.647 147.357 146.406 147.67 146.193 148.071C145.986 148.459 145.806 148.917 145.651 149.443C145.503 149.956 145.377 150.501 145.274 151.078C145.177 151.641 145.103 152.218 145.052 152.807C145.006 153.383 144.984 153.928 144.984 154.442C144.984 155.607 145.094 156.697 145.313 157.712C145.532 158.714 145.832 159.591 146.212 160.343C146.599 161.094 147.047 161.683 147.556 162.109C148.072 162.535 148.62 162.748 149.2 162.748C149.561 162.748 149.91 162.617 150.245 162.353C150.587 162.078 150.886 161.652 151.144 161.076C151.409 160.487 151.618 159.735 151.773 158.82C151.934 157.893 152.015 156.778 152.015 155.475C152.015 154.335 151.905 153.239 151.686 152.186C151.467 151.134 151.167 150.207 150.786 149.405C150.406 148.603 149.961 147.964 149.452 147.488C148.943 147.012 148.398 146.774 147.817 146.774Z" fill="#594747"/>
<path d="M160.225 148.935C160.528 148.372 160.857 147.808 161.212 147.244C161.573 146.68 161.937 146.173 162.304 145.722C162.678 145.258 163.052 144.882 163.426 144.594C163.8 144.306 164.152 144.162 164.48 144.162C164.706 144.162 164.925 144.212 165.138 144.312C165.357 144.4 165.57 144.506 165.776 144.632C165.989 144.744 166.199 144.851 166.405 144.951C166.611 145.039 166.821 145.083 167.034 145.083C167.162 145.083 167.298 145.064 167.44 145.026C167.582 144.989 167.743 144.92 167.923 144.82C167.517 145.421 167.162 145.941 166.859 146.379C166.556 146.818 166.273 147.181 166.008 147.469C165.744 147.745 165.48 147.952 165.215 148.09C164.958 148.215 164.667 148.265 164.345 148.24C164.029 148.227 163.729 148.165 163.446 148.052C163.168 147.939 162.914 147.827 162.682 147.714C162.456 147.588 162.256 147.501 162.082 147.451C161.914 147.388 161.782 147.407 161.686 147.507C161.453 147.733 161.25 148.146 161.076 148.747C160.902 149.349 160.754 150.063 160.631 150.89C160.515 151.717 160.419 152.612 160.341 153.577C160.27 154.542 160.216 155.507 160.177 156.471C160.145 157.436 160.129 158.357 160.129 159.234C160.129 160.098 160.141 160.85 160.167 161.489C159.684 162.09 159.284 162.61 158.968 163.049C158.652 163.487 158.401 163.851 158.214 164.139C157.994 164.477 157.827 164.771 157.711 165.022C157.717 164.27 157.727 163.362 157.74 162.297C157.753 161.22 157.762 160.092 157.769 158.914C157.782 157.737 157.791 156.571 157.798 155.419C157.804 154.254 157.808 153.208 157.808 152.28C157.808 151.692 157.798 151.096 157.779 150.495C157.766 149.881 157.714 149.324 157.624 148.823C157.534 148.321 157.392 147.914 157.198 147.601C157.011 147.288 156.744 147.131 156.396 147.131C156.26 147.131 156.118 147.163 155.97 147.225C155.828 147.275 155.686 147.369 155.545 147.507C155.815 147.156 156.086 146.799 156.357 146.436C156.628 146.073 156.898 145.747 157.169 145.459C157.446 145.158 157.72 144.92 157.991 144.744C158.268 144.557 158.549 144.463 158.833 144.463C159.174 144.463 159.439 144.607 159.626 144.895C159.819 145.183 159.958 145.546 160.041 145.985C160.132 146.423 160.183 146.906 160.196 147.432C160.216 147.958 160.225 148.459 160.225 148.935Z" fill="#594747"/>
<path d="M178.571 150.815C178.552 151.554 178.526 152.462 178.494 153.54C178.461 154.467 178.423 155.632 178.377 157.035C178.339 158.426 178.284 160.073 178.213 161.978L175.737 165.172C175.808 164.346 175.866 163.468 175.911 162.541C175.963 161.602 176.005 160.656 176.037 159.704C176.069 158.751 176.092 157.812 176.105 156.885C176.124 155.945 176.134 155.068 176.134 154.254C176.134 153.477 176.114 152.706 176.076 151.942C176.044 151.178 175.957 150.495 175.815 149.894C175.679 149.292 175.473 148.804 175.196 148.428C174.925 148.052 174.551 147.864 174.074 147.864C173.648 147.864 173.284 148.096 172.981 148.559C172.685 149.023 172.43 149.806 172.217 150.909C172.004 152.011 171.827 153.471 171.685 155.287C171.55 157.091 171.434 159.347 171.337 162.053L169.026 165.285C169.084 162.867 169.129 160.806 169.161 159.102C169.193 157.398 169.216 155.995 169.229 154.893C169.248 153.602 169.258 152.537 169.258 151.698C169.29 150.182 169.184 148.998 168.939 148.146C168.694 147.282 168.32 146.849 167.817 146.849C167.656 146.849 167.485 146.899 167.304 147C167.13 147.087 166.943 147.219 166.743 147.394C166.995 147.043 167.259 146.686 167.536 146.323C167.814 145.947 168.097 145.609 168.387 145.308C168.678 145.008 168.968 144.763 169.258 144.575C169.554 144.375 169.845 144.275 170.128 144.275C170.399 144.275 170.644 144.381 170.863 144.594C171.089 144.807 171.26 145.164 171.376 145.665C171.479 146.104 171.553 146.611 171.598 147.188C171.65 147.751 171.682 148.372 171.695 149.048C171.972 148.409 172.285 147.795 172.633 147.206C172.988 146.605 173.352 146.085 173.726 145.647C174.106 145.196 174.487 144.851 174.867 144.613C175.247 144.362 175.602 144.275 175.931 144.35C176.163 144.412 176.405 144.525 176.656 144.688C176.914 144.851 177.156 145.089 177.381 145.402C177.613 145.715 177.823 146.116 178.01 146.605C178.197 147.081 178.339 147.676 178.435 148.39C178.713 147.814 179.019 147.269 179.354 146.755C179.689 146.229 180.031 145.778 180.379 145.402C180.727 145.026 181.072 144.744 181.414 144.557C181.756 144.356 182.075 144.287 182.372 144.35C182.662 144.425 182.961 144.582 183.271 144.82C183.587 145.045 183.874 145.409 184.132 145.91C184.39 146.398 184.599 147.043 184.76 147.845C184.928 148.635 185.002 149.624 184.983 150.815C184.963 152.23 184.928 153.533 184.876 154.724C184.831 155.914 184.809 156.96 184.809 157.862C184.809 158.401 184.831 158.908 184.876 159.384C184.928 159.86 185.012 160.274 185.128 160.625C185.244 160.975 185.399 161.251 185.592 161.451C185.785 161.652 186.027 161.752 186.317 161.752C186.575 161.752 186.846 161.658 187.13 161.47C187.42 161.27 187.71 160.969 188 160.568C187.523 161.382 187.088 162.065 186.694 162.617C186.308 163.168 185.947 163.613 185.611 163.951C185.276 164.289 184.963 164.527 184.673 164.665C184.39 164.815 184.112 164.884 183.842 164.872C183.571 164.859 183.339 164.753 183.145 164.552C182.952 164.364 182.797 164.07 182.681 163.669C182.565 163.256 182.484 162.729 182.439 162.09C182.394 161.439 182.378 160.643 182.391 159.704C182.41 158.877 182.433 157.968 182.459 156.979C182.491 155.976 182.507 154.987 182.507 154.009C182.507 153.208 182.488 152.437 182.449 151.698C182.417 150.946 182.333 150.288 182.197 149.725C182.062 149.161 181.862 148.71 181.598 148.372C181.334 148.033 180.972 147.864 180.515 147.864C180.263 147.864 180.038 147.933 179.838 148.071C179.638 148.209 179.457 148.409 179.296 148.672C179.141 148.923 179.003 149.223 178.88 149.574C178.764 149.913 178.661 150.288 178.571 150.702V150.815Z" fill="#594747"/>
<path d="M129.173 73.4909C129.56 72.9553 133.884 68.8824 135.26 69.3492C135.93 69.5763 136.578 70.4816 137.277 71.3433C137.39 71.3657 137.499 71.3936 137.604 71.4273C140.493 72.3557 143.042 70.347 143.042 70.347C143.042 70.347 141.584 73.0067 139.753 73.0781C138.812 73.1148 138.016 72.2533 137.277 71.3433C134.292 70.7499 128.801 74.0071 129.173 73.4909Z" fill="#594747"/>
<path d="M91.3123 75.0898L91.2485 75.1098C91.7559 74.2102 91.8895 73.1791 92.5285 72.5366C93.1675 71.8941 93.7956 71.7888 94.5285 71.7888C94.9796 71.7888 95.6452 71.876 96.5285 72.0366C97.3931 72.1972 98.7129 72.325 100.029 72.325C101.194 72.325 102.07 72.2293 103.029 72.0366C104.006 71.8438 105.211 71.4836 106 70.9214C105.173 71.8691 104.207 72.3913 103.248 72.9214C102.29 73.4354 101.207 73.7126 100.248 73.9214C99.2485 73.9214 99.0566 73.9214 98.2485 73.9214C97.3276 73.9214 96.7935 73.9857 96.2485 73.9214C95.6847 73.8411 95.1244 73.674 94.7485 73.6098C94.3538 73.5294 93.7485 73.4214 93.2485 73.6098C92.9102 73.6098 92.3554 74.1822 92.1299 74.3428C91.8855 74.4874 91.613 74.7364 91.3123 75.0898Z" fill="#594747"/>
</svg>
